<?xml version="1.0" encoding="utf-8"?>
<!-- Generator: Adobe Illustrator 22.0.0, SVG Export Plug-In . SVG Version: 6.00 Build 0)  -->
<svg version="1.1" id="Layer_1" xmlns="http://www.w3.org/2000/svg" xmlns:xlink="http://www.w3.org/1999/xlink" x="0px" y="0px"
	 viewBox="0 0 34.5 34.5" style="enable-background:new 0 0 34.5 34.5;" xml:space="preserve">
<style type="text/css">
	.st0{fill:#0066FF;}
</style>
<g>
	<g>
		<g>
			<g>
				<path class="st0" d="M2.5,17.2c0-8.1,6.6-14.8,14.8-14.8C25.4,2.5,32,9.1,32,17.2C32,25.4,25.4,32,17.2,32
					C9.1,32,2.5,25.4,2.5,17.2z M17.2,34.5c9.5,0,17.2-7.7,17.2-17.2C34.5,7.7,26.7,0,17.2,0C7.7,0,0,7.7,0,17.2
					C0,26.7,7.7,34.5,17.2,34.5z"/>
			</g>
		</g>
		<g>
			<g>
				<g>
					<path class="st0" d="M10.7,25.8v-17h6.4c1.1,0,2,0.1,2.6,0.2c0.8,0.1,1.5,0.4,2.1,0.8c0.6,0.4,1,0.9,1.4,1.6
						c0.3,0.7,0.5,1.5,0.5,2.3c0,1.4-0.5,2.7-1.4,3.7c-0.9,1-2.6,1.5-5,1.5H13v6.9H10.7z M13,16.8h4.4c1.5,0,2.5-0.3,3.1-0.8
						c0.6-0.5,0.9-1.3,0.9-2.3c0-0.7-0.2-1.3-0.5-1.8c-0.4-0.5-0.8-0.8-1.4-1c-0.4-0.1-1.1-0.1-2.1-0.1H13V16.8z"/>
				</g>
			</g>
		</g>
	</g>
</g>
</svg>
