<?xml version="1.0" encoding="utf-8"?>
<!-- Generator: Adobe Illustrator 22.0.0, SVG Export Plug-In . SVG Version: 6.00 Build 0)  -->
<svg version="1.1" id="Layer_1" xmlns="http://www.w3.org/2000/svg" xmlns:xlink="http://www.w3.org/1999/xlink" x="0px" y="0px"
	 viewBox="0 0 183.4 43.1" style="enable-background:new 0 0 183.4 43.1;" xml:space="preserve">
<style type="text/css">
	.st0{fill:#0066FF;}
</style>
<g>
	<path class="st0" d="M47.5,13.4L39,42.2H26.9L23,25.5l-3.7,16.7H8.5L0,13.4h10.3l3.8,18.2l4.3-18.2h10.4l4.4,18.4l4-18.4H47.5z"/>
	<path class="st0" d="M69.4,39.5c-1.9,2.4-4.3,3.6-7.3,3.6c-3.8,0-7-1.4-9.6-4.2c-2.7-2.8-4-6.5-4-11c0-4.4,1.3-8,3.9-10.9
		s5.8-4.3,9.7-4.3c3.1,0,5.6,1.1,7.3,3.3v-2.4h9.7v28.7h-9.7V39.5z M67.8,32.2c1.1-1.2,1.6-2.6,1.6-4.4s-0.5-3.2-1.6-4.4
		c-1.1-1.2-2.4-1.8-4-1.8s-2.9,0.6-4,1.8c-1.1,1.2-1.6,2.7-1.6,4.4s0.5,3.2,1.6,4.4c1.1,1.2,2.4,1.8,4,1.8S66.7,33.4,67.8,32.2z"/>
	<path class="st0" d="M95.5,23.3c1,0.4,2.2,0.8,3.6,1.1c1.4,0.3,2.8,0.8,4.2,1.4s2.6,1.5,3.6,2.9c1,1.3,1.5,3,1.5,5.1
		c0,2.6-1.1,4.8-3.3,6.6c-2.2,1.8-5.4,2.7-9.4,2.7c-5.5,0-9.7-1.6-12.7-4.9l5.2-6.1c2.3,2.3,5,3.4,8,3.4c1.8,0,2.6-0.5,2.6-1.6
		c0-0.6-0.4-1-1.1-1.4s-1.6-0.7-2.7-1c-1.1-0.2-2.2-0.6-3.5-1.1s-2.4-1-3.5-1.6s-1.9-1.5-2.7-2.8c-0.7-1.2-1.1-2.6-1.1-4.3
		c0-2.4,1-4.6,3.1-6.4s5-2.7,8.6-2.7c5.8,0,9.9,1.7,12.3,5l-5.3,5.6c-1.8-2-4-3.1-6.7-3.1c-1.7,0-2.5,0.5-2.5,1.6
		C94,22.4,94.5,22.9,95.5,23.3z"/>
	<path class="st0" d="M123.1,42.2h-9.7V0.9h9.7V17c1.5-3,4-4.4,7.4-4.4c3.3,0,5.9,1.1,7.8,3.3c1.9,2.2,2.9,5.3,2.9,9.1v17.2h-9.7
		V26.3c0-1.4-0.4-2.6-1.1-3.4c-0.8-0.9-1.8-1.3-3.1-1.3c-1.3,0-2.3,0.4-3.1,1.3c-0.8,0.9-1.2,2-1.2,3.4L123.1,42.2L123.1,42.2z"/>
	<path class="st0" d="M157.5,42.2h-9.7V13.4h9.7V42.2z"/>
	<path class="st0" d="M164.7,20.7c-2.2-2.1-3.3-4.5-3.3-7.3c0-3,1-5.5,3-7.5s4.6-3.1,7.9-3.1c3.2,0,5.8,1,7.9,3.1
		c2.1,2,3.1,4.5,3.1,7.5c0,2.8-1.1,5.3-3.3,7.3c-2.2,2.1-4.8,3.1-7.7,3.1C169.4,23.8,166.8,22.8,164.7,20.7z M175.5,16.6
		c0.9-0.8,1.3-1.9,1.3-3.2c0-1.4-0.4-2.5-1.3-3.3s-1.9-1.2-3.1-1.2c-1.2,0-2.3,0.4-3.1,1.2S168,12,168,13.4s0.4,2.4,1.3,3.3
		c0.9,0.8,1.9,1.2,3.1,1.2C173.6,17.9,174.6,17.5,175.5,16.6z"/>
</g>
</svg>
