<svg enable-background="new 0 0 183.4 43.1" viewBox="0 0 183.4 43.1" xmlns="http://www.w3.org/2000/svg"><path d="m47.5 13.4-8.5 28.8h-12.1l-3.9-16.7-3.7 16.7h-10.8l-8.5-28.8h10.3l3.8 18.2 4.3-18.2h10.4l4.4 18.4 4-18.4z"/><path d="m69.4 39.5c-1.9 2.4-4.3 3.6-7.3 3.6-3.8 0-7-1.4-9.6-4.2-2.7-2.8-4-6.5-4-11 0-4.4 1.3-8 3.9-10.9s5.8-4.3 9.7-4.3c3.1 0 5.6 1.1 7.3 3.3v-2.4h9.7v28.7h-9.7zm-1.6-7.3c1.1-1.2 1.6-2.6 1.6-4.4s-.5-3.2-1.6-4.4-2.4-1.8-4-1.8-2.9.6-4 1.8-1.6 2.7-1.6 4.4.5 3.2 1.6 4.4 2.4 1.8 4 1.8 2.9-.6 4-1.8z"/><path d="m95.5 23.3c1 .4 2.2.8 3.6 1.1s2.8.8 4.2 1.4 2.6 1.5 3.6 2.9c1 1.3 1.5 3 1.5 5.1 0 2.6-1.1 4.8-3.3 6.6s-5.4 2.7-9.4 2.7c-5.5 0-9.7-1.6-12.7-4.9l5.2-6.1c2.3 2.3 5 3.4 8 3.4 1.8 0 2.6-.5 2.6-1.6 0-.6-.4-1-1.1-1.4s-1.6-.7-2.7-1c-1.1-.2-2.2-.6-3.5-1.1s-2.4-1-3.5-1.6-1.9-1.5-2.7-2.8c-.7-1.2-1.1-2.6-1.1-4.3 0-2.4 1-4.6 3.1-6.4s5-2.7 8.6-2.7c5.8 0 9.9 1.7 12.3 5l-5.3 5.6c-1.8-2-4-3.1-6.7-3.1-1.7 0-2.5.5-2.5 1.6.3.7.8 1.2 1.8 1.6z"/><path d="m123.1 42.2h-9.7v-41.3h9.7v16.1c1.5-3 4-4.4 7.4-4.4 3.3 0 5.9 1.1 7.8 3.3s2.9 5.3 2.9 9.1v17.2h-9.7v-15.9c0-1.4-.4-2.6-1.1-3.4-.8-.9-1.8-1.3-3.1-1.3s-2.3.4-3.1 1.3-1.2 2-1.2 3.4z"/><path d="m157.5 42.2h-9.7v-28.8h9.7z"/><path d="m164.7 20.7c-2.2-2.1-3.3-4.5-3.3-7.3 0-3 1-5.5 3-7.5s4.6-3.1 7.9-3.1c3.2 0 5.8 1 7.9 3.1 2.1 2 3.1 4.5 3.1 7.5 0 2.8-1.1 5.3-3.3 7.3-2.2 2.1-4.8 3.1-7.7 3.1s-5.5-1-7.6-3.1zm10.8-4.1c.9-.8 1.3-1.9 1.3-3.2 0-1.4-.4-2.5-1.3-3.3s-1.9-1.2-3.1-1.2-2.3.4-3.1 1.2-1.3 1.9-1.3 3.3.4 2.4 1.3 3.3c.9.8 1.9 1.2 3.1 1.2s2.2-.4 3.1-1.3z"/></svg>