<?xml version="1.0" encoding="utf-8"?>
<!-- Generator: Adobe Illustrator 22.0.0, SVG Export Plug-In . SVG Version: 6.00 Build 0)  -->
<svg version="1.1" id="Layer_1" xmlns="http://www.w3.org/2000/svg" xmlns:xlink="http://www.w3.org/1999/xlink" x="0px" y="0px"
	 viewBox="0 0 47.9 32.9" style="enable-background:new 0 0 47.9 32.9;" xml:space="preserve">
<style type="text/css">
	.st0{fill:#0066FF;}
</style>
<g>
	<g>
		<path class="st0" d="M47.9,26.5c-0.3-1-0.6-2-0.9-3c-1.3-4.6-2.7-9.2-4.2-13.7c-0.2-0.7-0.4-1.4-0.6-2.1l3.8-2.6L44.5,3l-3,2.1
			C41.2,4.4,41,3.6,40.6,3c-0.1-0.2-0.2-0.4-0.3-0.6C39.2,0.7,37.3,0,35.3,0C27.2,0.1,19.1,0,11,0.1c-0.2,0-0.2,0.3-0.2,0.4
			c0.6,1.2,1.3,2.2,1.9,3.4C17.6,4,22.5,4,27.3,4.5c1.8,0.2,3.7,0.5,5.5,0.9c3.5,0.7,4.2,0.7,4.9,2.4L31.5,12c-4.2,0-8.5-0.1-12.7,0
			L5.9,3.2L4.4,5.3l10.2,7c-0.1,0-0.2,0-0.3,0c-1,0.1-2.2,0.4-3.2,0.8c-1.9,0.6-3.7,1.6-5.2,2.8c-2.3,1.9-4.2,4.4-5.1,7.3
			C0.5,24.3,0,26.5,0,26.5l10.5,0l-6.2,4.3l1.5,2.1l9.3-6.4l20.4,0l9,6.2l1.4-2.1l-5.9-4.1L47.9,26.5z M42.3,23.5
			c-2.3,0-4.6,0-6.9,0.1l-8.1-5.6l4.6-3.2c1.9,0,3.7,0,5.6,0c0.7,0,1.5-0.2,2.3,0c0.7,2.7,1.5,5.5,2.5,8.1V23.5z M38.9,11.6
			c0.1,0.3-0.7,0.3-1,0.3c-0.6,0-1.2,0-1.8,0l2.5-1.7C38.6,10.6,38.7,11.1,38.9,11.6z M27.4,14.8l-2.3,1.6l-2.2-1.5
			C24.4,14.8,25.9,14.8,27.4,14.8z M3.7,23.7c-0.2-0.3,0.1-0.6,0.2-0.9C4.5,21,6,19.6,7.4,18.4c2.9-2.4,6.4-3.4,10.1-3.4
			c0.3,0,0.6,0,0.9,0l4.4,3l-8.2,5.7C11,23.6,7.4,23.6,3.7,23.7z M19.2,23.6l5.9-4.1l5.9,4.1C27.1,23.5,23.1,23.6,19.2,23.6z"/>
	</g>
</g>
</svg>
