<?xml version="1.0" encoding="utf-8"?>
<!-- Generator: Adobe Illustrator 22.0.0, SVG Export Plug-In . SVG Version: 6.00 Build 0)  -->
<svg version="1.1" id="Layer_1" xmlns="http://www.w3.org/2000/svg" xmlns:xlink="http://www.w3.org/1999/xlink" x="0px" y="0px"
	 viewBox="0 0 86.1 55.1" style="enable-background:new 0 0 86.1 55.1;" xml:space="preserve">
<style type="text/css">
	.st0{fill:#0066FF;}
</style>
<g>
	<path class="st0" d="M12.8,54.9l60,0.2L86.1,2.5l-5.6-1.2c0,0-1.2,4.8-1.7,7.1c-0.6,0.7-1.6,0.9-2.3,0.6
		c-6.1-3.8-11.7,1.2-16.8,3.3c-0.7,0.1-1.9,0.6-2.3-0.4c0.7-3.8-1.9-6.2-2.7-9.3c-0.5-0.7,0.1-1.9-0.6-2.4c-0.9-0.1-2.3-0.6-2.8,0.4
		c0.6,2.6,2.6,6.6,3,7.6c0.4,1,1.5,24.3,0.1,25.8c-0.3,0.1-1.3,0.5-1.9-0.6c-0.3-3.6-0.3-8.5-0.6-12.1c-0.7-0.3-1.6-0.2-2.1,0.4
		c0.2,6.5,0.1,12.1,0.1,18.4c-0.3,0.7-1.5,1.3-2.2,0.9c-0.6-0.4-0.5-18.4-0.8-19.9c-0.3-0.2-0.5-0.3-1-0.2c-0.5,0-0.9,0.5-0.9,0.5
		s0.9,20.2-0.2,21.7c-0.3,0.2-0.8,0.4-1.4,0.3c-0.5,0-1-0.9-1.1-1.4L42,21c0,0,0-0.4-1.1-0.4c-1.1,0-0.9,0.6-1,0.8
		c0,0,0.4,16.7-0.6,19.7c-0.8,0.6-2.4,0.5-3-0.4c-0.2-1.4,0.3-25.5,0.2-25.8c-0.1-0.3-0.6-0.6-0.6-0.6c-0.6-0.5-1.4-0.1-1.7,0.2
		c-0.2,0.3-0.5,5.2-0.5,5.2s0.4,5.4-1.9,5.3c-0.6,0.1-1.2-0.3-1.4-0.9c-0.8-4.7,0.4-14.4,0.8-15.2c0.5-0.8,5.7-5.3,5.3-8.9
		c-1-0.2-1.8-0.4-2.6,0.2c0,3.9-4.1,4.8-5.4,8.2c-0.4,1.2,0,2.6-1.2,3.5c-3.7-1-6.9-3.2-10.5-4.5C13.7,6.4,8,9,8,9L6,1.3L0,2.7
		L12.8,54.9z M13,11.1c5.5,0.1,9.2,4.3,14.4,5.2c0,0,0.2,7.5,0.4,8.2c0.3,1.2,0.9,2.2,2,2.6c1.4,0.6,2.7,0.5,4.2,0.5
		c0.1,2.2,0,4.2-0.1,6.3c-0.1,1.9-0.1,3.9,0.2,5.8c0.3,1.7,0.8,3.2,2.6,3.8c0.7,0.3,1.7,0.4,2.5,0.3c0.8-0.1,1.1-0.4,1.6-0.9
		c0.1,0.5,1.1,2.3,2.7,2.3c1.6,0,2.8-0.8,2.8-2.5c0,0.1,1.3,0.8,2,0.8c0.7,0,1.2-0.3,1.9-0.5c2.9-1,1.8-4.3,1.8-6.7
		c1.5,1,4.3-1.1,4.8-2.5c1.9-5.7-0.6-11.7,0.9-17.5c7,0.7,12.4-9.4,18.9-2.8c0.1,2.2-0.9,4.4-1.4,6.6C73.1,29.6,67.6,49,67.6,49
		l-49.4-0.2c0,0-7-25.5-9.2-34.6C9.3,12,11.5,11.4,13,11.1z"/>
</g>
</svg>
