<?xml version="1.0" encoding="utf-8"?>
<!-- Generator: Adobe Illustrator 22.0.0, SVG Export Plug-In . SVG Version: 6.00 Build 0)  -->
<svg version="1.1" id="Layer_1" xmlns="http://www.w3.org/2000/svg" xmlns:xlink="http://www.w3.org/1999/xlink" x="0px" y="0px"
	 viewBox="0 0 40.3 31.4" style="enable-background:new 0 0 40.3 31.4;" xml:space="preserve">
<style type="text/css">
	.st0{fill:#0066FF;}
</style>
<g>
	<g>
		<g>
			<path class="st0" d="M32,22.6c0,0-3.1-5.8-4.3-8.9c4.1-2.7,12.6-7.8,12.6-7.8l-1.5-2.7c0,0-12,7.4-12.8,7.4C24,7.1,20.5,0,20.5,0
				S16.3,7,14,10.4C10.1,7.6,2.1,2.6,2.1,2.6L0.4,5.1l12,8.4L6.5,23L0,26.9l1.4,2.7l2.4-1.1c-0.2,0.6-1.2,2.7-1.2,2.7l33.8,0
				l-0.5-1.9l2.2,1.1l1.6-2.7L32,22.6z M24.6,16l1.2,2.2l-2.4-1.6L24.6,16z M17.1,12.3l3-5l2.8,5.2l-2.9,1.8L17.1,12.3z M15.3,15.7
				l1.4,0.7l-2.8,1.9L15.3,15.7z M8.3,27.9l1.5-3l9.9-6.2l1.4,0.7l8.4,5.7l1.5,2.9L8.3,27.9z"/>
		</g>
	</g>
</g>
</svg>
