<?xml version="1.0" encoding="utf-8"?>
<!-- Generator: Adobe Illustrator 22.0.0, SVG Export Plug-In . SVG Version: 6.00 Build 0)  -->
<svg version="1.1" id="Layer_1" xmlns="http://www.w3.org/2000/svg" xmlns:xlink="http://www.w3.org/1999/xlink" x="0px" y="0px"
	 viewBox="0 0 47.9 26.5" style="enable-background:new 0 0 47.9 26.5;" xml:space="preserve">
<style type="text/css">
	.st0{fill:#0066FF;}
</style>
<g>
	<g>
		<g>
			<path class="st0" d="M20.1,19.2c0-1.7,1.4-3.1,3.1-3.1c1.7,0,3.1,1.4,3.1,3.1c0,1.7-1.4,3.1-3.1,3.1C21.5,22.4,20.1,21,20.1,19.2
				z"/>
		</g>
		<g>
			<g>
				<path class="st0" d="M40.3,2.4C39.2,0.7,37.3,0,35.3,0C27.2,0.1,19.1,0,11,0.1c-0.2,0-0.2,0.3-0.2,0.4c0.6,1.2,1.3,2.2,1.9,3.4
					C17.6,4,22.5,4,27.3,4.5c1.8,0.2,3.7,0.5,5.5,0.9c5.2,1.1,4.3,0.6,6.1,6.2c0.1,0.3-0.7,0.3-1,0.3c-7,0.3-14.1-0.1-21.1,0.2
					c-0.8,0-1.6,0.2-2.5,0.2c-1,0.1-2.1,0.4-3.2,0.8c-1.9,0.6-3.7,1.6-5.2,2.8c-2.3,1.9-4.2,4.4-5.1,7.3C0.5,24.3,0,26.5,0,26.5
					l47.9,0.1c-0.3-1-0.6-2-0.9-3c-1.3-4.6-2.7-9.2-4.2-13.7c-0.7-2.2-1-4.8-2.1-6.9C40.5,2.7,40.4,2.5,40.3,2.4z M3.7,23.7
					c-0.2-0.3,0.1-0.6,0.2-0.9C4.5,21,6,19.6,7.4,18.4c2.9-2.4,6.4-3.4,10.1-3.4c6.6-0.1,13.3-0.3,20-0.2c0.7,0,1.5-0.2,2.3,0
					c0.7,2.7,1.5,5.5,2.5,8.1v0.6C29.5,23.6,16.6,23.5,3.7,23.7z"/>
			</g>
		</g>
	</g>
</g>
</svg>
