<?xml version="1.0" encoding="utf-8"?>
<!-- Generator: Adobe Illustrator 22.0.0, SVG Export Plug-In . SVG Version: 6.00 Build 0)  -->
<svg version="1.1" id="Layer_1" xmlns="http://www.w3.org/2000/svg" xmlns:xlink="http://www.w3.org/1999/xlink" x="0px" y="0px"
	 viewBox="0 0 41.9 26.2" style="enable-background:new 0 0 41.9 26.2;" xml:space="preserve">
<style type="text/css">
	.st0{fill:#0066FF;}
</style>
<g>
	<g>
		<g>
			<g>
				<g>
					<g>
						<path class="st0" d="M38.8,0L38,3.7c0,0-2.8-1.1-4.2-0.7c-1.7,0.7-3.3,1.9-5.2,2.3c-1.2,0-2.4,0-3.4-0.5
							c-1.5-0.8-3.2-1.4-5.1-1.2c-1.5,0.2-2.6,0.9-3.9,1.5c-3.1,1.2-5.6-1-8.2-1.8C6.9,2.8,5.7,3.3,4.7,3.7c-0.3,0.1-1,0.5-1.1-0.1
							C3.4,2.4,2.7,0.1,2.7,0.1L0,0.6l6.5,25.6l29.3-0.1l6.1-25.6L38.8,0z M37.4,5.7c-1.6,5.6-4,17.1-4,17.1S8.5,22.6,8.5,22.8
							c0,0.1-2.7-11.3-4.1-16.9c0.7-0.8,1.7-1.4,2.7-1.3c1.8,0.4,3.2,1.7,5,2.2C13,7.2,13.9,6.9,14.8,7c2.5,0.1,4.3-2.5,7-1.8
							c1.5,0.4,2.8,1.3,4.3,1.6c1.3,0.2,2.8,0,4.1-0.4c2-0.6,3.6-2.6,5.7-1.9C36.5,4.7,37.5,4.9,37.4,5.7z"/>
					</g>
				</g>
			</g>
		</g>
		<g>
			<path class="st0" d="M20.1,11.7L19,11.7c-0.1-0.4-0.2-0.8-0.4-0.9c-0.3-0.3-0.7-0.5-1.1-0.5c-0.4,0-0.7,0.1-1,0.3
				c-0.4,0.3-0.6,0.6-0.8,1.1c-0.2,0.5-0.3,1.2-0.3,2.1c0.3-0.4,0.6-0.7,1-0.9c0.4-0.2,0.8-0.3,1.2-0.3c0.7,0,1.4,0.3,1.9,0.8
				c0.5,0.5,0.8,1.3,0.8,2.1c0,0.6-0.1,1.1-0.4,1.6c-0.2,0.5-0.6,0.9-1,1.1c-0.4,0.3-0.9,0.4-1.5,0.4c-0.9,0-1.7-0.3-2.3-1
				c-0.6-0.7-0.9-1.8-0.9-3.4c0-1.8,0.3-3,1-3.8c0.6-0.7,1.3-1,2.3-1c0.7,0,1.3,0.2,1.8,0.6C19.8,10.4,20.1,10.9,20.1,11.7z
				 M15.5,15.6c0,0.4,0.1,0.7,0.2,1.1c0.2,0.3,0.4,0.6,0.7,0.8c0.3,0.2,0.6,0.3,0.9,0.3c0.5,0,0.9-0.2,1.2-0.6
				c0.3-0.4,0.5-0.9,0.5-1.5c0-0.6-0.2-1.1-0.5-1.5c-0.3-0.4-0.8-0.5-1.3-0.5c-0.5,0-0.9,0.2-1.3,0.5C15.7,14.5,15.5,15,15.5,15.6z"
				/>
			<path class="st0" d="M21.3,14c0-1.1,0.1-1.9,0.3-2.6c0.2-0.7,0.6-1.2,1-1.5c0.4-0.4,1-0.5,1.6-0.5c0.5,0,0.9,0.1,1.3,0.3
				c0.4,0.2,0.7,0.5,0.9,0.8c0.2,0.4,0.4,0.8,0.6,1.3c0.1,0.5,0.2,1.2,0.2,2.1c0,1.1-0.1,1.9-0.3,2.6c-0.2,0.7-0.5,1.2-1,1.5
				c-0.4,0.4-1,0.5-1.7,0.5c-0.9,0-1.6-0.3-2.1-0.9C21.6,17,21.3,15.7,21.3,14z M22.4,14c0,1.5,0.2,2.5,0.5,3
				c0.3,0.5,0.8,0.7,1.3,0.7c0.5,0,0.9-0.2,1.3-0.7c0.3-0.5,0.5-1.5,0.5-3c0-1.5-0.2-2.5-0.5-3c-0.3-0.5-0.8-0.7-1.3-0.7
				c-0.5,0-0.9,0.2-1.2,0.6C22.6,11.5,22.4,12.5,22.4,14z"/>
		</g>
	</g>
</g>
</svg>
