<?xml version="1.0" encoding="utf-8"?>
<!-- Generator: Adobe Illustrator 22.0.0, SVG Export Plug-In . SVG Version: 6.00 Build 0)  -->
<svg version="1.1" id="Layer_1" xmlns="http://www.w3.org/2000/svg" xmlns:xlink="http://www.w3.org/1999/xlink" x="0px" y="0px"
	 viewBox="0 0 39.9 30.8" style="enable-background:new 0 0 39.9 30.8;" xml:space="preserve">
<style type="text/css">
	.st0{fill:#0066FF;}
</style>
<g>
	<g>
		<g>
			<path class="st0" d="M39.9,25.6l-4.5-2.7l0-15.2L39.7,5l-1.8-2.8l-2.5,1.6l0-3.8L4,0l0,3.9L1.7,2.5L0,5.4l4,2.4l0,15.7L0.2,26
				L2,28.8l2.1-1.3l0,3.3l31.3,0v-4l2.7,1.6L39.9,25.6z M31.4,15.5c0,1.6-0.3,3.1-0.9,4.4l-7.4-4.5l7.3-4.6
				C31,12.3,31.4,13.9,31.4,15.5z M33.3,12c0-0.5-0.7-1.4-0.9-1.9c-0.1-0.1-0.1-0.2-0.2-0.4L33.3,9C33.3,10.7,33.3,12,33.3,12z
				 M33.3,21.6l-1-0.6c0.4-0.7,0.7-1.5,1-2.3C33.3,19.3,33.3,20.4,33.3,21.6z M33.3,2.2c0,0,0,1.3,0,2.9l-2.9,1.8
				c-0.3-0.4-0.7-0.9-1.1-1.3c-1.3-1.2-2.9-2.1-4.5-2.8c-0.6-0.2-1.7-0.7-1.7-0.7C26,2.2,33.3,2.2,33.3,2.2z M28.6,8l-8.7,5.5
				L10.7,8c2.1-2.5,5.4-4.2,8.9-4.2C23.3,3.8,26.5,5.5,28.6,8z M8,15.5c0-1.7,0.4-3.3,1-4.7l7.8,4.7L9,20.4C8.4,18.9,8,17.3,8,15.5z
				 M6.2,2.2c0,0,9.8,0,10.2,0c-0.5,0-4.5,1.6-6.4,3.5C9.7,6,9.3,6.5,9,6.9L6.2,5.2C6.2,3.5,6.2,2.2,6.2,2.2z M7.2,9.8
				c-0.6,1.1-1,2-1,2.2c0-0.3,0-1.4,0-2.8L7.2,9.8z M6.2,19.2c0.3,0.8,0.7,1.5,1.1,2.3l-1.1,0.7V19.2z M6.2,28.6v-2.4l2.9-1.8
				c0.1,0.2,0.3,0.4,0.5,0.6c0.8,0.8,1.7,1.5,2.6,2.1c1,0.7,2.1,1.2,3.3,1.5H6.2z M10.9,23.2l9.1-5.7l8.9,5.4
				c-2.1,2.7-5.4,4.4-9.1,4.4C16.2,27.2,13,25.7,10.9,23.2z M33.3,28.6c0,0-9,0-9.2,0c2.6-0.8,4.8-2.5,6.5-4.7l2.8,1.7
				C33.3,27.2,33.3,28.6,33.3,28.6z"/>
		</g>
	</g>
</g>
</svg>
