<?xml version="1.0" encoding="utf-8"?>
<!-- Generator: Adobe Illustrator 22.0.0, SVG Export Plug-In . SVG Version: 6.00 Build 0)  -->
<svg version="1.1" id="Layer_1" xmlns="http://www.w3.org/2000/svg" xmlns:xlink="http://www.w3.org/1999/xlink" x="0px" y="0px"
	 viewBox="0 0 94.2 59.3" style="enable-background:new 0 0 94.2 59.3;" xml:space="preserve">
<style type="text/css">
	.st0{fill:#0066FF;}
</style>
<g>
	<g>
		<path class="st0" d="M85.4,14.1l8.9-5.8l-3.8-5.8l-2.7,1.8l0.8-3.3l-6-0.9l-1.7,7.3c0,0-5.5-2.2-8.2-1.4
			c-3.4,1.3-6.5,3.7-10.2,4.5c-2.4,0-4.6,0-6.8-1.1c-3-1.6-6.4-2.7-10-2.3c-3,0.3-5.1,1.8-7.6,2.9c-6.1,2.3-10.9-1.9-16-3.6
			c-2.2-0.7-4.6,0.2-6.6,1.1c-0.6,0.3-1.9,1-2.1-0.1c-0.5-2.4-1.8-7-1.8-7L6.1,1.2l1,3.9L3.8,3L0,8.8l9.7,6.3l8.8,34.6l-5.7,3.7
			l3.8,5.8l11.8-7.8l36.8-0.1l12.2,7.9l3.8-5.8l-4.6-3L85.4,14.1z M71.9,44.9c0,0-1.4,0-3.7,0l-14.8-9.7l24.3-16
			C74.8,30.6,71.9,44.9,71.9,44.9z M20.2,9.1c3.5,0.9,6.3,3.3,9.8,4.3c1.7,0.9,3.4,0.2,5.2,0.3c5,0.3,8.4-4.9,13.7-3.5
			c3,0.7,5.5,2.6,8.4,3.2c2.6,0.5,5.6,0.1,8-0.7c3.9-1.2,7-5.1,11.2-3.7c0.8,0.3,1.9,0.5,2.6,1L46.9,31L15.7,10.7
			C16.9,9.6,18.6,8.8,20.2,9.1z M22.9,44.7c0,0.2-3.3-13.7-6.1-25l23.7,15.4l-14.4,9.5C24.1,44.7,22.9,44.7,22.9,44.7z M38.8,44.7
			l8.1-5.3l8.3,5.4C49.9,44.7,44.1,44.7,38.8,44.7z"/>
	</g>
</g>
</svg>
