<?xml version="1.0" encoding="utf-8"?>
<!-- Generator: Adobe Illustrator 22.0.0, SVG Export Plug-In . SVG Version: 6.00 Build 0)  -->
<svg version="1.1" id="Layer_1" xmlns="http://www.w3.org/2000/svg" xmlns:xlink="http://www.w3.org/1999/xlink" x="0px" y="0px"
	 viewBox="0 0 31.4 30.6" style="enable-background:new 0 0 31.4 30.6;" xml:space="preserve">
<style type="text/css">
	.st0{fill:#0066FF;}
</style>
<g>
	<g>
		<g>
			<path class="st0" d="M12.1,15.3c0-2,1.7-3.7,3.7-3.7c2,0,3.7,1.7,3.7,3.7c0,2-1.7,3.7-3.7,3.7C13.7,19,12.1,17.3,12.1,15.3z"/>
		</g>
		<g>
			<path class="st0" d="M30.3,0H1.1H0v1.1v28.5v1.1h1.1h29.3h1.1v-1.1V1.1V0H30.3z M2.1,2.1h9.5c-5,1.5-8.7,5.8-9.5,11V2.1z
				 M2.1,28.5v-11c0.8,5.2,4.6,9.5,9.5,11H2.1z M4,15.3C4,8.8,9.3,3.6,15.7,3.6c6.5,0,11.7,5.3,11.7,11.7c0,6.5-5.2,11.7-11.7,11.7
				C9.3,27,4,21.7,4,15.3z M29.3,28.5h-9.4c4.7-1.5,8.4-5.5,9.4-10.4V28.5z M29.3,12.5c-1-4.9-4.7-8.9-9.4-10.4h9.4V12.5z"/>
		</g>
	</g>
</g>
</svg>
